<svg
  xmlns="http://www.w3.org/2000/svg"
  width="24"
  height="24"
  viewBox="0 0 24 24"
  fill="none"
  stroke="currentColor"
>
  <path
    d="M17.05 20.28c-.98.95-2.05.88-3.08.38-1.09-.53-2.04-.56-3.17 0-1.14.56-2.13.5-3.08-.41-4.05-4.04-3.41-10.36 1.15-10.42 1.35 0 2.37.75 3.06.75.75 0 2.06-.85 3.44-.75 1.16.09 2.13.47 2.75 1.19-2.5 1.34-2.09 5.09.44 6.16-.5 1.25-1.13 2.5-1.51 3.1zm-4.03-16.7c.66-1.13 1.84-1.63 2.97-1.58.19 1.35-.69 2.59-1.38 3.38-.81.9-2.06 1.47-3.03 1.38-.22-1.25.75-2.38 1.44-3.18z"
  />
</svg>
