<svg xmlns="http://www.w3.org/2000/svg" width="59" height="24" viewBox="0 0 59 24"><path fill="currentColor" d="M 45.414062 0.882812 L 51.167969 11.488281 L 33.386719 11.488281 L 27.660156 0.882812 Z M 28.558594 13.230469 C 26.519531 13.230469 24.402344 13.035156 23.101562 11.902344 C 22.015625 11.046875 21.417969 10.054688 20.792969 8.921875 C 20.65625 8.695312 19.089844 5.796875 17.878906 3.558594 L 17.878906 3.554688 C 17.15625 2.214844 16.558594 1.113281 16.476562 0.964844 L 0 0.964844 C 0.59375 2.066406 1.183594 3.171875 1.777344 4.277344 C 3.222656 6.976562 4.671875 9.679688 6.132812 12.34375 C 7.925781 15.660156 9.636719 18.753906 12.757812 21.015625 C 14.25 22.148438 15.824219 22.894531 17.671875 23.363281 C 19.492188 23.808594 21.335938 23.863281 23.210938 23.863281 L 37.867188 23.863281 L 32.113281 13.230469 Z M 34.339844 13.203125 L 40.09375 23.863281 L 57.847656 23.863281 L 52.066406 13.203125 Z M 34.339844 13.203125 "/>
</svg>
