<svg xmlns="http://www.w3.org/2000/svg" width="29" height="24" viewBox="0 0 29 24">
<path fill="currentColor" d="M 19.816406 12 C 18.964844 11.132812 19.035156 11.164062 17.828125 11.164062 L 10.175781 11.164062 C 8.96875 11.164062 9.042969 11.132812 8.191406 12 L 4.109375 16.15625 C 5.035156 18.058594 6.46875 19.65625 8.246094 20.761719 C 9.292969 19.699219 12.425781 16.503906 12.945312 15.972656 C 13.375 15.539062 13.5625 15.367188 13.792969 15.296875 C 13.859375 15.273438 13.929688 15.257812 14 15.257812 C 14.070312 15.257812 14.140625 15.273438 14.207031 15.296875 C 14.4375 15.367188 14.628906 15.539062 15.054688 15.972656 L 19.753906 20.761719 C 21.53125 19.65625 22.964844 18.058594 23.890625 16.15625 Z M 19.816406 12 "/>
<path fill="currentColor" d="M 8.78125 10.753906 C 9.089844 10.414062 9.046875 10.125 9.347656 9.332031 C 10.089844 7.371094 11.9375 6.078125 14.003906 6.078125 C 16.066406 6.078125 17.914062 7.371094 18.65625 9.332031 C 18.960938 10.128906 18.917969 10.414062 19.222656 10.753906 C 19.53125 11.09375 19.839844 11.164062 20.820312 11.164062 L 25.042969 11.164062 C 24.996094 4.984375 20.066406 0 14.003906 0 C 7.9375 0 3.007812 4.984375 2.960938 11.164062 L 7.183594 11.164062 C 8.164062 11.164062 8.480469 11.085938 8.78125 10.753906 "/>
</svg>
